<svg width="130" height="130" viewBox="0 0 130 130" fill="none" xmlns="http://www.w3.org/2000/svg">
<circle cx="65" cy="65" r="65" fill="#9AD0F9"/>
<g clip-path="url(#clip0_181_1538)">
<path d="M107.589 89.9833L99.2944 92.7483C98.6633 92.9595 97.9771 92.936 97.3619 92.682C96.7467 92.4281 96.2437 91.9607 95.9453 91.3658L85.6492 70.77H56.945C56.2117 70.77 55.5084 70.4787 54.9898 69.9601C54.4713 69.4416 54.18 68.7383 54.18 68.005V57.7538C49.7262 59.0833 45.8997 61.9712 43.3997 65.8896C40.8997 69.808 39.8932 74.4951 40.5643 79.0944C41.2354 83.6937 43.5391 87.8979 47.0545 90.9386C50.5698 93.9793 55.062 95.6534 59.71 95.655C68.6651 95.655 77.0224 89.4165 79.1514 81.1387C79.2422 80.787 79.4014 80.4566 79.6198 80.1663C79.8383 79.8761 80.1118 79.6317 80.4247 79.4472C80.7377 79.2626 81.0839 79.1415 81.4436 79.0908C81.8033 79.04 82.1695 79.0606 82.5212 79.1514C82.873 79.2422 83.2034 79.4014 83.4937 79.6198C83.7839 79.8383 84.0283 80.1118 84.2128 80.4247C84.3974 80.7377 84.5185 81.0839 84.5692 81.4436C84.62 81.8033 84.5994 82.1695 84.5086 82.5212C81.7229 93.3393 71.2953 101.185 59.71 101.185C53.5944 101.181 47.6943 98.926 43.1358 94.8492C38.5773 90.7724 35.6796 85.1598 34.9958 79.0826C34.3119 73.0054 35.8898 66.8892 39.4284 61.9013C42.9669 56.9134 48.2182 53.4032 54.18 52.0406V45.4737C51.9523 44.8095 50.0382 43.3657 48.7875 41.4063C47.5369 39.4468 47.0333 37.1027 47.3689 34.8025C47.7045 32.5023 48.8568 30.3997 50.6152 28.8793C52.3735 27.3588 54.6204 26.5221 56.945 26.5221C59.2696 26.5221 61.5165 27.3588 63.2748 28.8793C65.0332 30.3997 66.1855 32.5023 66.5211 34.8025C66.8567 37.1027 66.3531 39.4468 65.1025 41.4063C63.8518 43.3657 61.9377 44.8095 59.71 45.4737V51.415H79.065C79.7983 51.415 80.5016 51.7063 81.0201 52.2248C81.5387 52.7434 81.83 53.4467 81.83 54.18C81.83 54.9133 81.5387 55.6166 81.0201 56.1351C80.5016 56.6537 79.7983 56.945 79.065 56.945H59.71V65.24H87.36C87.8731 65.2403 88.376 65.3833 88.8124 65.6531C89.2489 65.9229 89.6016 66.3088 89.8312 66.7677L99.8198 86.7448L105.841 84.7367C106.536 84.5048 107.296 84.5588 107.952 84.8867C108.608 85.2147 109.106 85.7898 109.338 86.4856C109.57 87.1813 109.516 87.9407 109.188 88.5966C108.86 89.2526 108.285 89.7514 107.589 89.9833Z" fill="white"/>
</g>
<defs>
<clipPath id="clip0_181_1538">
<rect width="88.48" height="88.48" fill="white" transform="translate(21 21)"/>
</clipPath>
</defs>
</svg>
