<svg width="130" height="130" viewBox="0 0 130 130" fill="none" xmlns="http://www.w3.org/2000/svg">
<circle cx="65" cy="65" r="65" fill="#9AD0F9"/>
<g clip-path="url(#clip0_181_1554)">
<path d="M92.8468 43.12C95.1222 43.12 97.2679 43.552 99.2841 44.4161C101.3 45.2802 103.057 46.461 104.555 47.9587C106.053 49.4565 107.248 51.2278 108.141 53.2727C109.034 55.3177 109.466 57.4634 109.437 59.71C109.437 62.0142 109.005 64.1599 108.141 66.1473C107.277 68.1346 106.096 69.8915 104.598 71.418C103.1 72.9446 101.329 74.1398 99.2841 75.0039C97.2391 75.868 95.0934 76.3 92.8468 76.3H88.3969C87.1296 78.5178 85.6175 80.5627 83.8605 82.4348C82.1036 84.307 80.1595 85.9487 78.0281 87.36H90.0818C90.8307 87.36 91.4787 87.6336 92.0259 88.1809C92.5732 88.7281 92.8468 89.3761 92.8468 90.125C92.8468 90.8739 92.5732 91.5219 92.0259 92.0691C91.4787 92.6164 90.8307 92.89 90.0818 92.89H29.2518C28.5029 92.89 27.8549 92.6164 27.3077 92.0691C26.7604 91.5219 26.4868 90.8739 26.4868 90.125C26.4868 89.3761 26.7604 88.7281 27.3077 88.1809C27.8549 87.6336 28.5029 87.36 29.2518 87.36H41.3055C38.9725 85.8047 36.8987 84.019 35.0842 82.0028C33.2697 79.9867 31.7144 77.7977 30.4183 75.4359C29.1222 73.0742 28.1573 70.554 27.5237 67.8754C26.89 65.1968 26.5444 62.475 26.4868 59.71V43.12H92.8468ZM59.6668 87.36C62.2014 87.36 64.6496 87.0288 67.0113 86.3663C69.3731 85.7039 71.5765 84.7822 73.6214 83.6013C75.6664 82.4204 77.5241 80.9803 79.1946 79.281C80.8651 77.5817 82.3052 75.7096 83.5149 73.6646C84.7246 71.6197 85.6607 69.4163 86.3231 67.0545C86.9856 64.6928 87.3168 62.2446 87.3168 59.71V48.65H32.0168V59.71C32.0168 62.2446 32.348 64.6928 33.0105 67.0545C33.6729 69.4163 34.5946 71.6197 35.7755 73.6646C36.9564 75.7096 38.3965 77.5673 40.0958 79.2378C41.7951 80.9083 43.6672 82.3484 45.7122 83.5581C47.7571 84.7678 49.9605 85.7039 52.3223 86.3663C54.684 87.0288 57.1322 87.36 59.6668 87.36ZM92.8468 70.77C94.3733 70.77 95.799 70.482 97.1239 69.9059C98.4488 69.3299 99.6297 68.5378 100.667 67.5298C101.703 66.5217 102.495 65.3552 103.043 64.0303C103.59 62.7054 103.878 61.2653 103.907 59.71C103.907 58.1835 103.619 56.7578 103.043 55.4329C102.467 54.108 101.675 52.9271 100.667 51.8902C99.6585 50.8534 98.492 50.0613 97.1671 49.5141C95.8422 48.9668 94.4021 48.6788 92.8468 48.65C92.8468 50.5221 92.8612 52.3943 92.89 54.2664C92.9188 56.1385 92.9044 57.9963 92.8468 59.8396C92.7892 61.6829 92.6164 63.5119 92.3284 65.3264C92.0403 67.1409 91.5795 68.9555 90.9459 70.77H92.8468Z" fill="white"/>
</g>
<defs>
<clipPath id="clip0_181_1554">
<rect width="88.48" height="88.48" fill="white" transform="translate(21 21)"/>
</clipPath>
</defs>
</svg>
