<svg width="130" height="130" viewBox="0 0 130 130" fill="none" xmlns="http://www.w3.org/2000/svg">
<circle cx="65" cy="65" r="65" fill="#9AD0F9"/>
<g clip-path="url(#clip0_181_1567)">
<path d="M65 109C89.3005 109 109 89.3005 109 65C109 40.6995 89.3005 21 65 21C40.6995 21 21 40.6995 21 65C21 89.3005 40.6995 109 65 109Z" fill="white"/>
<path d="M65 99.2222C83.9004 99.2222 99.2222 83.9004 99.2222 65C99.2222 46.0996 83.9004 30.7778 65 30.7778C46.0996 30.7778 30.7778 46.0996 30.7778 65C30.7778 83.9004 46.0996 99.2222 65 99.2222Z" fill="#0F90F2"/>
<path d="M62.5555 65C62.5555 65.6483 62.8131 66.2701 63.2715 66.7285C63.7299 67.1869 64.3517 67.4444 65 67.4444C65.6483 67.4444 66.27 67.1869 66.7285 66.7285C67.1869 66.2701 67.4444 65.6483 67.4444 65V38.1111C67.4444 37.4628 67.1869 36.8411 66.7285 36.3826C66.27 35.9242 65.6483 35.6667 65 35.6667C64.3517 35.6667 63.7299 35.9242 63.2715 36.3826C62.8131 36.8411 62.5555 37.4628 62.5555 38.1111V65Z" fill="white"/>
<path d="M43.8311 77.2222C43.991 77.5006 44.2042 77.7446 44.4585 77.9404C44.7128 78.1362 45.0033 78.2799 45.3133 78.3633C45.6232 78.4466 45.9466 78.468 46.2648 78.4261C46.5831 78.3842 46.8899 78.28 47.1678 78.1193L66.2222 67.1193C66.5025 66.96 66.7484 66.7468 66.9459 66.492C67.1435 66.2372 67.2886 65.9459 67.3731 65.6348C67.4576 65.3237 67.4797 64.999 67.4381 64.6793C67.3965 64.3596 67.2922 64.0513 67.131 63.7721C66.9698 63.4929 66.755 63.2484 66.4989 63.0525C66.2428 62.8567 65.9505 62.7135 65.6389 62.6311C65.3272 62.5487 65.0023 62.5288 64.6829 62.5724C64.3635 62.6161 64.0559 62.7225 63.7778 62.8856L44.7233 73.8856C44.4454 74.0458 44.2018 74.2593 44.0065 74.5138C43.8112 74.7683 43.668 75.0589 43.5851 75.3688C43.5022 75.6788 43.4813 76.002 43.5235 76.32C43.5657 76.6381 43.6703 76.9446 43.8311 77.2222Z" fill="white"/>
</g>
<defs>
<clipPath id="clip0_181_1567">
<rect width="88" height="88" fill="white" transform="translate(21 21)"/>
</clipPath>
</defs>
</svg>
