<svg width="130" height="130" viewBox="0 0 130 130" fill="none" xmlns="http://www.w3.org/2000/svg">
<circle cx="65" cy="65" r="65" fill="#9AD0F9"/>
<circle cx="65" cy="65" r="65" fill="#9AD0F9"/>
<path d="M44.226 74.088C44.226 73.208 44.5756 72.3641 45.1978 71.7418C45.82 71.1196 46.664 70.77 47.544 70.77H47.5882C48.4682 70.77 49.3122 71.1196 49.9344 71.7418C50.5566 72.3641 50.9062 73.208 50.9062 74.088V74.1322C50.9062 75.0122 50.5566 75.8562 49.9344 76.4784C49.3122 77.1007 48.4682 77.4502 47.5882 77.4502H47.544C46.664 77.4502 45.82 77.1007 45.1978 76.4784C44.5756 75.8562 44.226 75.0122 44.226 74.1322V74.088ZM47.544 79.618C46.664 79.618 45.82 79.9676 45.1978 80.5898C44.5756 81.2121 44.226 82.056 44.226 82.936V82.9802C44.226 84.8118 45.7124 86.2982 47.544 86.2982H47.5882C48.4682 86.2982 49.3122 85.9487 49.9344 85.3264C50.5566 84.7042 50.9062 83.8602 50.9062 82.9802V82.936C50.9062 82.056 50.5566 81.2121 49.9344 80.5898C49.3122 79.9676 48.4682 79.618 47.5882 79.618H47.544ZM53.074 74.088C53.074 73.208 53.4236 72.3641 54.0458 71.7418C54.668 71.1196 55.512 70.77 56.392 70.77H56.4362C57.3162 70.77 58.1602 71.1196 58.7824 71.7418C59.4046 72.3641 59.7542 73.208 59.7542 74.088V74.1322C59.7542 75.0122 59.4046 75.8562 58.7824 76.4784C58.1602 77.1007 57.3162 77.4502 56.4362 77.4502H56.392C55.512 77.4502 54.668 77.1007 54.0458 76.4784C53.4236 75.8562 53.074 75.0122 53.074 74.1322V74.088ZM56.392 79.618C55.512 79.618 54.668 79.9676 54.0458 80.5898C53.4236 81.2121 53.074 82.056 53.074 82.936V82.9802C53.074 84.8118 54.5604 86.2982 56.392 86.2982H56.4362C57.3162 86.2982 58.1602 85.9487 58.7824 85.3264C59.4046 84.7042 59.7542 83.8602 59.7542 82.9802V82.936C59.7542 82.056 59.4046 81.2121 58.7824 80.5898C58.1602 79.9676 57.3162 79.618 56.4362 79.618H56.392ZM61.922 65.24C61.922 64.36 62.2716 63.5161 62.8938 62.8938C63.5161 62.2716 64.36 61.922 65.24 61.922H65.2842C66.1642 61.922 67.0082 62.2716 67.6304 62.8938C68.2526 63.5161 68.6022 64.36 68.6022 65.24V65.2842C68.6022 66.1642 68.2526 67.0082 67.6304 67.6304C67.0082 68.2527 66.1642 68.6022 65.2842 68.6022H65.24C64.36 68.6022 63.5161 68.2527 62.8938 67.6304C62.2716 67.0082 61.922 66.1642 61.922 65.2842V65.24ZM65.24 70.77C64.36 70.77 63.5161 71.1196 62.8938 71.7418C62.2716 72.3641 61.922 73.208 61.922 74.088V74.1322C61.922 75.9638 63.4084 77.4502 65.24 77.4502H65.2842C66.1642 77.4502 67.0082 77.1007 67.6304 76.4784C68.2526 75.8562 68.6022 75.0122 68.6022 74.1322V74.088C68.6022 73.208 68.2526 72.3641 67.6304 71.7418C67.0082 71.1196 66.1642 70.77 65.2842 70.77H65.24ZM61.922 82.936C61.922 82.056 62.2716 81.2121 62.8938 80.5898C63.5161 79.9676 64.36 79.618 65.24 79.618H65.2842C66.1642 79.618 67.0082 79.9676 67.6304 80.5898C68.2526 81.2121 68.6022 82.056 68.6022 82.936V82.9802C68.6022 83.8602 68.2526 84.7042 67.6304 85.3264C67.0082 85.9487 66.1642 86.2982 65.2842 86.2982H65.24C64.36 86.2982 63.5161 85.9487 62.8938 85.3264C62.2716 84.7042 61.922 83.8602 61.922 82.9802V82.936ZM74.088 61.922C73.208 61.922 72.3641 62.2716 71.7418 62.8938C71.1196 63.5161 70.77 64.36 70.77 65.24V65.2842C70.77 67.1158 72.2564 68.6022 74.088 68.6022H74.1322C75.0122 68.6022 75.8562 68.2527 76.4784 67.6304C77.1007 67.0082 77.4502 66.1642 77.4502 65.2842V65.24C77.4502 64.36 77.1007 63.5161 76.4784 62.8938C75.8562 62.2716 75.0122 61.922 74.1322 61.922H74.088ZM70.77 74.088C70.77 73.208 71.1196 72.3641 71.7418 71.7418C72.3641 71.1196 73.208 70.77 74.088 70.77H74.1322C75.0122 70.77 75.8562 71.1196 76.4784 71.7418C77.1007 72.3641 77.4502 73.208 77.4502 74.088V74.1322C77.4502 75.0122 77.1007 75.8562 76.4784 76.4784C75.8562 77.1007 75.0122 77.4502 74.1322 77.4502H74.088C73.208 77.4502 72.3641 77.1007 71.7418 76.4784C71.1196 75.8562 70.77 75.0122 70.77 74.1322V74.088ZM74.088 79.618C73.208 79.618 72.3641 79.9676 71.7418 80.5898C71.1196 81.2121 70.77 82.056 70.77 82.936V82.9802C70.77 84.8118 72.2564 86.2982 74.088 86.2982H74.1322C75.0122 86.2982 75.8562 85.9487 76.4784 85.3264C77.1007 84.7042 77.4502 83.8602 77.4502 82.9802V82.936C77.4502 82.056 77.1007 81.2121 76.4784 80.5898C75.8562 79.9676 75.0122 79.618 74.1322 79.618H74.088ZM79.618 65.24C79.618 64.36 79.9676 63.5161 80.5898 62.8938C81.2121 62.2716 82.056 61.922 82.936 61.922H82.9802C83.8602 61.922 84.7042 62.2716 85.3264 62.8938C85.9487 63.5161 86.2982 64.36 86.2982 65.24V65.2842C86.2982 66.1642 85.9487 67.0082 85.3264 67.6304C84.7042 68.2527 83.8602 68.6022 82.9802 68.6022H82.936C82.056 68.6022 81.2121 68.2527 80.5898 67.6304C79.9676 67.0082 79.618 66.1642 79.618 65.2842V65.24ZM82.936 70.77C82.056 70.77 81.2121 71.1196 80.5898 71.7418C79.9676 72.3641 79.618 73.208 79.618 74.088V74.1322C79.618 75.9638 81.1045 77.4502 82.936 77.4502H82.9802C83.8602 77.4502 84.7042 77.1007 85.3264 76.4784C85.9487 75.8562 86.2982 75.0122 86.2982 74.1322V74.088C86.2982 73.208 85.9487 72.3641 85.3264 71.7418C84.7042 71.1196 83.8602 70.77 82.9802 70.77H82.936Z" fill="white"/>
<path fill-rule="evenodd" clip-rule="evenodd" d="M46.438 29.848C47.318 29.848 48.1619 30.1976 48.7842 30.8198C49.4064 31.4421 49.756 32.286 49.756 33.166V38.696H80.724V33.166C80.724 32.286 81.0736 31.4421 81.6958 30.8198C82.3181 30.1976 83.162 29.848 84.042 29.848C84.922 29.848 85.7659 30.1976 86.3882 30.8198C87.0104 31.4421 87.36 32.286 87.36 33.166V38.696H88.466C91.6926 38.696 94.7871 39.9778 97.0687 42.2593C99.3502 44.5409 100.632 47.6354 100.632 50.862V88.466C100.632 91.6926 99.3502 94.7871 97.0687 97.0687C94.7871 99.3502 91.6926 100.632 88.466 100.632H42.014C38.7874 100.632 35.6929 99.3502 33.4113 97.0687C31.1298 94.7871 29.848 91.6926 29.848 88.466V50.862C29.848 47.6354 31.1298 44.5409 33.4113 42.2593C35.6929 39.9778 38.7874 38.696 42.014 38.696H43.12V33.166C43.12 32.286 43.4696 31.4421 44.0918 30.8198C44.7141 30.1976 45.558 29.848 46.438 29.848ZM42.014 54.18C38.9614 54.18 36.484 56.6574 36.484 59.71V88.466C36.484 91.5186 38.9614 93.996 42.014 93.996H88.466C91.5186 93.996 93.996 91.5186 93.996 88.466V59.71C93.996 56.6574 91.5186 54.18 88.466 54.18H42.014Z" fill="white"/>
</svg>
