<svg width="130" height="130" viewBox="0 0 130 130" fill="none" xmlns="http://www.w3.org/2000/svg">
<circle cx="65" cy="65" r="65" fill="#9AD0F9"/>
<path d="M98.5122 61.7377V91.0467C98.5122 93.0743 97.7902 94.8101 96.3463 96.2541C94.9023 97.698 93.1665 98.42 91.1389 98.42H39.5255C37.4979 98.42 35.7621 97.698 34.3181 96.2541C32.8742 94.8101 32.1522 93.0743 32.1522 91.0467V61.7377C30.739 60.4473 29.6483 58.7883 28.8803 56.7607C28.1122 54.733 28.0969 52.521 28.8342 50.1247L32.7052 37.59C33.1968 35.9924 34.0723 34.6714 35.3319 33.6268C36.5916 32.5823 38.0509 32.06 39.7099 32.06H90.9545C92.6135 32.06 94.0575 32.5669 95.2864 33.5807C96.5153 34.5946 97.4062 35.931 97.9592 37.59L101.83 50.1247C102.568 52.521 102.552 54.7023 101.784 56.6685C101.016 58.6347 99.9254 60.3244 98.5122 61.7377ZM73.4429 57.8667C75.1019 57.8667 76.3615 57.2983 77.2217 56.1616C78.0819 55.0249 78.4199 53.7499 78.2355 52.3367L76.2079 39.4333H69.0189V53.074C69.0189 54.3643 69.449 55.4857 70.3092 56.4381C71.1694 57.3905 72.214 57.8667 73.4429 57.8667ZM56.8529 57.8667C58.2661 57.8667 59.4182 57.3905 60.3091 56.4381C61.2001 55.4857 61.6455 54.3643 61.6455 53.074V39.4333H54.4565L52.4289 52.3367C52.1831 53.8113 52.5057 55.1017 53.3966 56.2077C54.2876 57.3137 55.4396 57.8667 56.8529 57.8667ZM40.4472 57.8667C41.5532 57.8667 42.5209 57.4673 43.3504 56.6685C44.1799 55.8697 44.6869 54.8559 44.8712 53.627L46.8989 39.4333H39.7099L36.0232 51.7837C35.6545 53.0126 35.8542 54.3336 36.6223 55.7468C37.3903 57.1601 38.6653 57.8667 40.4472 57.8667ZM90.2172 57.8667C91.9991 57.8667 93.2894 57.1601 94.0882 55.7468C94.887 54.3336 95.0713 53.0126 94.6412 51.7837L90.7702 39.4333H83.7655L85.7932 53.627C85.9775 54.8559 86.4844 55.8697 87.3139 56.6685C88.1434 57.4673 89.1112 57.8667 90.2172 57.8667ZM39.5255 91.0467H91.1389V65.0557C90.8316 65.1786 90.6319 65.24 90.5398 65.24H90.2172C88.5582 65.24 87.0989 64.9635 85.8393 64.4105C84.5797 63.8575 83.3354 62.9666 82.1065 61.7377C81.0005 62.8437 79.7409 63.7039 78.3277 64.3183C76.9145 64.9328 75.4091 65.24 73.8115 65.24C72.1525 65.24 70.6011 64.9328 69.1571 64.3183C67.7132 63.7039 66.4382 62.8437 65.3322 61.7377C64.2876 62.8437 63.0741 63.7039 61.6916 64.3183C60.3091 64.9328 58.8191 65.24 57.2215 65.24C55.4396 65.24 53.8267 64.9328 52.3828 64.3183C50.9388 63.7039 49.6639 62.8437 48.5579 61.7377C47.2675 63.028 45.9926 63.9343 44.7329 64.4566C43.4733 64.9789 42.0448 65.24 40.4472 65.24H40.0324C39.8788 65.24 39.7099 65.1786 39.5255 65.0557V91.0467Z" fill="white"/>
</svg>
