<svg width="130" height="130" viewBox="0 0 130 130" fill="none" xmlns="http://www.w3.org/2000/svg">
<circle cx="65" cy="65" r="65" fill="#9AD0F9"/>
<g clip-path="url(#clip0_181_1532)">
<path d="M92.7529 29.5958C95.6417 31.8609 97.6325 35.5196 98.4465 39.3508C98.5451 39.382 98.6412 39.4204 98.7341 39.4658L107.781 43.6509C108.287 43.8831 108.716 44.2552 109.017 44.7232C109.318 45.1912 109.478 45.7356 109.48 46.292V101.004C109.477 101.458 109.368 101.906 109.163 102.311C108.958 102.717 108.661 103.069 108.297 103.341C107.933 103.613 107.51 103.796 107.063 103.877C106.616 103.958 106.156 103.935 105.72 103.808L80.6399 96.73L50.8222 104.95C50.2842 105.098 49.7156 105.091 49.1809 104.932L23.097 97.168C22.4941 96.9909 21.9644 96.6241 21.5866 96.122C21.2088 95.6199 21.0031 95.0093 21 94.3809V38.6872C21 36.7406 22.8935 35.3426 24.7825 35.8912L50.0082 43.2395L62.8289 39.3154C63.0054 39.2633 63.1859 39.2263 63.3686 39.2048C63.8641 36.3026 65.2489 33.5155 67.5715 30.7992C70.3276 27.5696 75.163 25.6762 79.8746 25.4505C84.7631 25.2161 88.497 26.2601 92.7484 29.5914L92.7529 29.5958ZM26.8972 42.5935V92.2087L48.4421 98.6191V48.8624L26.8972 42.5935ZM63.2138 45.3099L54.3393 48.0218V97.9201L76.7468 91.753V77.176C76.7468 75.5656 78.0696 74.2605 79.6976 74.2605C81.3257 74.2605 82.644 75.5656 82.644 77.1804V91.2354L103.583 97.1415V48.1457L98.6279 45.8452C98.5439 46.3318 98.4377 46.8096 98.305 47.2741C97.3429 50.6663 95.7291 53.8384 93.5536 56.6132L82.5954 70.2966C82.3068 70.6564 81.9383 70.9439 81.5192 71.1362C81.1 71.3286 80.6418 71.4205 80.1809 71.4046C79.7199 71.3887 79.2691 71.2654 78.8642 71.0447C78.4593 70.8239 78.1115 70.5117 77.8484 70.1329L67.6068 55.2993C65.9169 52.9369 64.7312 50.831 64.0632 48.9464C63.6439 47.7701 63.359 46.5502 63.2138 45.3099ZM80.1577 31.2814C76.9459 31.4362 73.6456 32.728 72.0751 34.564C70.186 36.776 69.257 38.8464 69.0712 40.9434C68.85 43.4695 69.0004 45.2524 69.6286 47.0175C70.0931 48.3226 71.0177 49.9772 72.4467 51.9724L80.4586 63.5722L88.9084 53.0209C90.6131 50.8423 91.8769 48.3524 92.629 45.6903C93.6908 41.9742 92.0893 36.515 89.0898 34.1703C86.0151 31.7592 83.6925 31.1088 80.1622 31.2814H80.1577ZM80.7682 34.3649C85.6523 34.3649 89.6162 38.2802 89.6162 43.1112C89.6099 44.2665 89.3759 45.4093 88.9278 46.4742C88.4796 47.5391 87.826 48.5052 87.0043 49.3175C86.1827 50.1297 85.209 50.7721 84.139 51.2079C83.069 51.6437 81.9236 51.8644 80.7682 51.8574C75.8841 51.8574 71.9202 47.9422 71.9202 43.1112C71.9202 38.2802 75.8841 34.3649 80.7682 34.3649ZM80.7682 40.1957C80.3831 40.1934 80.0012 40.267 79.6444 40.4122C79.2877 40.5575 78.963 40.7716 78.689 41.0423C78.415 41.313 78.197 41.6351 78.0475 41.99C77.8979 42.345 77.8198 42.726 77.8174 43.1112C77.8174 44.7215 79.1402 46.0266 80.7682 46.0266C81.1534 46.0283 81.5352 45.9542 81.8917 45.8084C82.2482 45.6626 82.5726 45.448 82.8462 45.1769C83.1198 44.9057 83.3373 44.5834 83.4863 44.2282C83.6353 43.873 83.7129 43.4919 83.7146 43.1067C83.7088 42.3304 83.3954 41.588 82.8431 41.0423C82.2908 40.4966 81.5446 40.1922 80.7682 40.1957Z" fill="white"/>
</g>
<defs>
<clipPath id="clip0_181_1532">
<rect width="88.48" height="88.48" fill="white" transform="translate(21 21)"/>
</clipPath>
</defs>
</svg>
